<svg width="111" height="30" viewBox="0 0 111 30" fill="none" xmlns="http://www.w3.org/2000/svg">
<path d="M45.6721 18.2351C45.165 18.2351 44.7423 18.6586 44.7423 19.1667C44.7423 21.1359 43.2419 22.724 41.4245 22.724C39.586 22.724 38.1067 21.1359 38.1067 19.1667V12.7086H44.0449C44.5521 12.7086 44.9748 12.2851 44.9748 11.777C44.9748 11.2688 44.5521 10.8453 44.0449 10.8453H38.1067V5.93288C38.1067 5.4247 37.6841 5.00122 37.1769 5.00122C36.6697 5.00122 36.2471 5.4247 36.2471 5.93288V19.1667C36.2471 22.1523 38.5716 24.5873 41.4245 24.5873C44.2774 24.5873 46.602 22.1523 46.602 19.1667C46.602 18.6586 46.1793 18.2351 45.6721 18.2351Z" fill="#6DC8BF"/>
<path d="M100.511 12.0297C100.828 11.6274 100.786 11.0345 100.384 10.7169C99.4754 9.95463 98.3554 9.57349 97.1931 9.57349C94.3402 9.57349 92.0156 12.0085 92.0156 14.9941V23.5696C92.0156 24.0778 92.4383 24.5013 92.9455 24.5013C93.4526 24.5013 93.8753 24.0778 93.8753 23.5696V14.9941C93.8753 13.0249 95.3757 11.4368 97.1931 11.4368C97.9327 11.4368 98.6301 11.6909 99.2007 12.1567C99.6022 12.4955 100.194 12.432 100.511 12.0297Z" fill="#6DC8BF"/>
<path d="M73.7572 9.57349C72.0032 9.57349 70.4394 10.5052 69.5095 11.9026C68.5797 10.5052 67.0159 9.57349 65.2619 9.57349C62.409 9.57349 60.0845 12.0085 60.0845 14.9941V23.5696C60.0845 24.0778 60.5071 24.5013 61.0143 24.5013C61.5215 24.5013 61.9441 24.0778 61.9441 23.5696V14.9941C61.9441 13.0249 63.4445 11.4368 65.2619 11.4368C67.0793 11.4368 68.5797 13.0249 68.5797 14.9941V23.5696C68.5797 24.0778 69.0024 24.5013 69.5095 24.5013C70.0167 24.5013 70.4394 24.0778 70.4394 23.5696V14.9941C70.4394 13.0249 71.9398 11.4368 73.7572 11.4368C75.5957 11.4368 77.075 13.0249 77.075 14.9941V23.5696C77.075 24.0778 77.4976 24.5013 78.0048 24.5013C78.512 24.5013 78.9346 24.0778 78.9346 23.5696V14.9941C78.9346 12.0085 76.61 9.57349 73.7572 9.57349Z" fill="#6DC8BF"/>
<path d="M53.1745 9.57349C52.0122 9.57349 50.8922 9.9758 49.9835 10.7169C49.582 11.0345 49.5186 11.6274 49.8567 12.0297C50.1737 12.432 50.7654 12.4955 51.1669 12.1567C51.7586 11.6697 52.456 11.4368 53.1745 11.4368C53.2802 11.4368 53.3858 11.4368 53.4915 11.458C53.5338 11.458 53.5549 11.458 53.5972 11.4792C53.6606 11.4792 53.7451 11.5003 53.8085 11.5215C53.8508 11.5215 53.893 11.5427 53.9142 11.5427C53.9776 11.5639 54.041 11.585 54.1043 11.585C54.1466 11.6062 54.1889 11.6062 54.21 11.6274C54.2734 11.6486 54.3368 11.6697 54.3791 11.6909C54.4213 11.7121 54.4425 11.7121 54.4847 11.7333C54.5481 11.7544 54.6115 11.7968 54.6538 11.818C54.6749 11.8391 54.7172 11.8603 54.7383 11.8603C54.8017 11.9027 54.8862 11.945 54.9496 11.9873C54.9708 12.0085 54.9919 12.0085 54.9919 12.0297C55.0764 12.0932 55.161 12.1567 55.2244 12.2203C55.2455 12.2414 55.2666 12.2626 55.2878 12.2838C55.3512 12.3261 55.3934 12.3897 55.4568 12.432C55.478 12.4532 55.4991 12.4955 55.5414 12.5167C55.5836 12.5591 55.6259 12.6226 55.6682 12.6649C55.6893 12.7073 55.7104 12.7284 55.7527 12.7708C55.7949 12.8131 55.8372 12.8767 55.8583 12.919C55.8795 12.9614 55.9006 12.9825 55.9217 13.0249C55.964 13.0884 55.9851 13.1308 56.0274 13.1943C56.0485 13.2366 56.0697 13.2578 56.0908 13.3001C56.1331 13.3637 56.1542 13.4484 56.1753 13.5119C56.1965 13.5331 56.1965 13.5754 56.2176 13.5966C56.2599 13.7025 56.3021 13.8083 56.3233 13.893C56.3233 13.9142 56.3233 13.9354 56.3444 13.9565C56.3655 14.0201 56.3867 14.1048 56.4078 14.1683H52.9421C50.216 14.1683 47.9971 16.3916 47.9971 19.123C47.9971 22.1086 50.3216 24.5436 53.1745 24.5436C54.5059 24.5436 55.647 24.099 56.4923 23.6332C56.5134 24.1413 56.915 24.5436 57.4221 24.5436C57.9293 24.5436 58.352 24.1202 58.352 23.612V22.1933V18.7843V14.9729C58.352 12.0085 56.0274 9.57349 53.1745 9.57349ZM49.8567 19.1654C49.8567 17.4503 51.2515 16.074 52.9421 16.074H56.4923V18.7843V21.431C55.964 21.8545 54.7172 22.7227 53.1745 22.7227C51.336 22.7227 49.8567 21.1346 49.8567 19.1654Z" fill="#6DC8BF"/>
<path d="M85.2107 9.57349C84.0484 9.57349 82.9284 9.9758 82.0197 10.7169C81.6181 11.0345 81.5547 11.6274 81.8929 12.0297C82.2098 12.432 82.8016 12.4955 83.2031 12.1567C83.7948 11.6697 84.4922 11.4368 85.2107 11.4368C85.3163 11.4368 85.422 11.4368 85.5276 11.458C85.5699 11.458 85.591 11.458 85.6333 11.4792C85.6967 11.4792 85.7812 11.5003 85.8446 11.5215C85.8869 11.5215 85.9292 11.5427 85.9503 11.5427C86.0137 11.5639 86.0771 11.585 86.1405 11.585C86.1827 11.6062 86.225 11.6062 86.2461 11.6274C86.3095 11.6486 86.3729 11.6697 86.4152 11.6909C86.4575 11.7121 86.4786 11.7121 86.5209 11.7333C86.5843 11.7544 86.6477 11.7968 86.6899 11.818C86.7111 11.8391 86.7533 11.8603 86.7745 11.8603C86.8379 11.9027 86.9224 11.945 86.9858 11.9873C87.0069 12.0085 87.028 12.0085 87.028 12.0297C87.1126 12.0932 87.1971 12.1567 87.2605 12.2203C87.2816 12.2414 87.3028 12.2626 87.3239 12.2838C87.3873 12.3261 87.4296 12.3897 87.493 12.432C87.5141 12.4532 87.5352 12.4955 87.5775 12.5167C87.6198 12.5591 87.662 12.6226 87.7043 12.6649C87.7254 12.7073 87.7465 12.7284 87.7888 12.7708C87.8311 12.8131 87.8733 12.8767 87.8945 12.919C87.9156 12.9614 87.9367 12.9825 87.9579 13.0249C88.0001 13.0884 88.0213 13.1308 88.0635 13.1943C88.0847 13.2366 88.1058 13.2578 88.1269 13.3001C88.1692 13.3637 88.1903 13.4484 88.2115 13.5119C88.2326 13.5331 88.2326 13.5754 88.2537 13.5966C88.296 13.7025 88.3383 13.8083 88.3594 13.893C88.3594 13.9142 88.3594 13.9354 88.3805 13.9565C88.4017 14.0201 88.4228 14.1048 88.4439 14.1683H84.9782C82.2521 14.1683 80.0332 16.3916 80.0332 19.123C80.0332 22.1086 82.3578 24.5436 85.2107 24.5436C86.542 24.5436 87.6832 24.099 88.5284 23.6332C88.5496 24.1413 88.9511 24.5436 89.4583 24.5436C89.9655 24.5436 90.3881 24.1202 90.3881 23.612V22.1933V18.7843V14.9729C90.3881 12.0085 88.0635 9.57349 85.2107 9.57349ZM81.8717 19.1654C81.8717 17.4503 83.2665 16.074 84.9571 16.074H88.5073V18.7843V21.431C87.979 21.8545 86.7322 22.7227 85.1895 22.7227C83.3721 22.7227 81.8717 21.1346 81.8717 19.1654Z" fill="#6DC8BF"/>
<path d="M105.392 9.57349C104.23 9.57349 103.11 9.9758 102.201 10.7169C101.799 11.0345 101.736 11.6274 102.074 12.0297C102.391 12.432 102.983 12.4955 103.384 12.1567C103.976 11.6697 104.673 11.4368 105.392 11.4368C105.498 11.4368 105.603 11.4368 105.709 11.458C105.751 11.458 105.772 11.458 105.815 11.4792C105.878 11.4792 105.963 11.5003 106.026 11.5215C106.068 11.5215 106.11 11.5427 106.132 11.5427C106.195 11.5639 106.258 11.585 106.322 11.585C106.364 11.6062 106.406 11.6062 106.427 11.6274C106.491 11.6486 106.554 11.6697 106.596 11.6909C106.639 11.7121 106.66 11.7121 106.702 11.7333C106.766 11.7544 106.829 11.7968 106.871 11.818C106.892 11.8391 106.935 11.8603 106.956 11.8603C107.019 11.9027 107.104 11.945 107.167 11.9873C107.188 12.0085 107.209 12.0085 107.209 12.0297C107.294 12.0932 107.378 12.1567 107.442 12.2203C107.463 12.2414 107.484 12.2626 107.505 12.2838C107.569 12.3261 107.611 12.3897 107.674 12.432C107.695 12.4532 107.717 12.4955 107.759 12.5167C107.801 12.5591 107.843 12.6226 107.886 12.6649C107.907 12.7073 107.928 12.7284 107.97 12.7708C108.012 12.8131 108.055 12.8767 108.076 12.919C108.097 12.9614 108.118 12.9825 108.139 13.0249C108.181 13.0884 108.203 13.1308 108.245 13.1943C108.266 13.2366 108.287 13.2578 108.308 13.3001C108.35 13.3637 108.372 13.4272 108.393 13.5119C108.414 13.5331 108.414 13.5754 108.435 13.5966C108.477 13.7025 108.498 13.7872 108.541 13.893C108.541 13.9142 108.562 13.9354 108.562 13.9565C108.583 14.0201 108.604 14.1048 108.604 14.1683H105.138C102.412 14.1683 100.193 16.3916 100.193 19.123C100.193 22.1086 102.518 24.5436 105.371 24.5436C106.702 24.5436 107.843 24.099 108.689 23.6332C108.71 24.1413 109.111 24.5436 109.618 24.5436C110.126 24.5436 110.548 24.1202 110.548 23.612V22.1933V18.7843V14.9729C110.569 12.0085 108.245 9.57349 105.392 9.57349ZM102.074 19.1654C102.074 17.4503 103.469 16.074 105.159 16.074H108.71V18.7843V21.431C108.181 21.8545 106.935 22.7227 105.392 22.7227C103.553 22.7227 102.074 21.1346 102.074 19.1654Z" fill="#6DC8BF"/>
<path d="M27.6723 13.5346C26.7165 13.5346 25.9334 14.3077 25.9334 15.2769C25.9334 21.4846 20.901 26.5269 14.7056 26.5269C8.51012 26.5269 3.47775 21.4846 3.47775 15.2769V10.9038H10.5139C11.4697 10.9038 12.2527 10.1308 12.2527 9.16154C12.2527 8.20385 11.4812 7.41923 10.5139 7.41923H3.47775V1.74231C3.47775 0.784615 2.70619 0 1.73887 0C0.783069 0 0 0.773077 0 1.74231V15.2654C0 23.3885 6.59851 30 14.7056 30C22.8126 30 29.4111 23.3885 29.4111 15.2654C29.4111 14.3192 28.6396 13.5346 27.6723 13.5346Z" fill="#6DC8BF"/>
<path d="M17.1471 10.9027C17.5962 10.9027 18.0453 10.7181 18.3677 10.3952C18.6902 10.0722 18.8744 9.62236 18.8744 9.16097C18.8744 8.71112 18.6902 8.26127 18.3677 7.92677C18.2871 7.84603 18.195 7.77682 18.1029 7.70761C18.0108 7.64994 17.9071 7.59227 17.8035 7.54613C17.6998 7.49999 17.5847 7.46539 17.481 7.44232C17.2622 7.39618 17.0319 7.39618 16.8016 7.44232C16.6864 7.46539 16.5828 7.49999 16.4792 7.54613C16.3755 7.59227 16.2719 7.63841 16.1798 7.70761C16.0876 7.76529 15.9955 7.84603 15.9149 7.92677C15.5925 8.24974 15.4082 8.69959 15.4082 9.16097C15.4082 9.62236 15.5925 10.0722 15.9149 10.3952C16.2373 10.7181 16.6864 10.9027 17.1471 10.9027Z" fill="#6DC8BF"/>
<path d="M23.7689 10.9024C24.218 10.9024 24.6671 10.7178 25.001 10.3949C25.3235 10.0719 25.5077 9.62205 25.5077 9.16067C25.5077 8.71082 25.3235 8.26097 25.001 7.938C24.9204 7.85726 24.8283 7.78805 24.7362 7.71884C24.6441 7.66117 24.5404 7.6035 24.4368 7.55736C24.3331 7.51122 24.218 7.47662 24.1143 7.45355C23.8955 7.40741 23.6652 7.40741 23.4349 7.45355C23.3197 7.47662 23.2161 7.51122 23.1125 7.55736C23.0088 7.6035 22.9052 7.64964 22.8131 7.71884C22.7209 7.77652 22.6288 7.85726 22.5482 7.938C22.2258 8.26097 22.0415 8.71082 22.0415 9.16067C22.0415 9.62205 22.2258 10.0719 22.5482 10.3949C22.8706 10.7178 23.3197 10.9024 23.7689 10.9024Z" fill="#6DC8BF"/>
</svg>
